<svg width="121" height="122" viewBox="0 0 121 122" fill="none" xmlns="http://www.w3.org/2000/svg">
<rect x="1" width="120" height="120" fill="#FAFAFA"/>
<path d="M38.2946 47.0842L28.3827 45.7599L25.7934 65.5916L35.7054 66.9158L38.2946 47.0842ZM35.7054 66.9158L88.0985 73.9158L90.6878 54.0842L38.2946 47.0842L35.7054 66.9158Z" fill="#150915"/>
<path d="M84.963 110V20.4H94.947V110H84.963ZM25.059 110V20.4H35.043V110H25.059ZM29.923 70.192V60.464H89.187V70.192H29.923Z" fill="#150915"/>
<path d="M84.963 110V20.4H94.947V110H84.963ZM25.059 110V20.4H35.043V110H25.059ZM29.923 70.192V60.464H89.187V70.192H29.923Z" fill="#150915"/>
<ellipse cx="28.6732" cy="27.1087" rx="28.6732" ry="27.1087" transform="matrix(0.991919 0.126869 -0.124025 0.992279 37.7243 29)" fill="#150915"/>
<ellipse cx="60.4559" cy="43.7433" rx="24.525" ry="21.5" transform="rotate(-10.7537 60.4559 43.7433)" fill="#FAFAFA"/>
<path d="M48.492 64.98C50.3863 66.1166 52.8434 65.5023 53.98 63.608C55.1166 61.7137 54.5023 59.2566 52.608 58.12L48.492 64.98ZM52.608 58.12L42.608 52.12L38.492 58.98L48.492 64.98L52.608 58.12Z" fill="#717EA3"/>
<rect x="41.8085" y="34" width="13.2103" height="15.1692" transform="rotate(14.5407 41.8085 34)" fill="#530629"/>
<path d="M43.6424 45.143C42.6168 42.5791 39.707 41.332 37.143 42.3576C34.5791 43.3832 33.332 46.293 34.3576 48.857L43.6424 45.143ZM34.3576 48.857L38.3576 58.857L47.6424 55.143L43.6424 45.143L34.3576 48.857Z" fill="#717EA3"/>
<ellipse cx="37.8956" cy="39.5008" rx="7.59052" ry="9.25222" transform="rotate(-1.91584 37.8956 39.5008)" fill="#8E9ECC"/>
<rect x="49.2418" y="50.0237" width="15.8077" height="2.30883" transform="rotate(-20.5458 49.2418 50.0237)" fill="#530629"/>
<path d="M67.9817 31.0148L63.2729 45.2112L49.6465 51.3781L54.3552 37.1817L67.9817 31.0148Z" fill="#D01167"/>
<rect x="62.3399" y="45.763" width="15.73" height="2.61335" transform="rotate(-70.4363 62.3399 45.763)" fill="#530629"/>
</svg>
